<svg xmlns="http://www.w3.org/2000/svg" width="1920" height="1080" viewBox="0 0 1920 1080">
  <metadata><?xpacket begin="﻿" id="W5M0MpCehiHzreSzNTczkc9d"?>
<x:xmpmeta xmlns:x="adobe:ns:meta/" x:xmptk="Adobe XMP Core 5.6-c140 79.160451, 2017/05/06-01:08:21        ">
   <rdf:RDF xmlns:rdf="http://www.w3.org/1999/02/22-rdf-syntax-ns#">
      <rdf:Description rdf:about=""/>
   </rdf:RDF>
</x:xmpmeta>
                                                                                                    
                                                                                                    
                                                                                                    
                                                                                                    
                                                                                                    
                                                                                                    
                                                                                                    
                                                                                                    
                                                                                                    
                                                                                                    
                                                                                                    
                                                                                                    
                                                                                                    
                                                                                                    
                                                                                                    
                                                                                                    
                                                                                                    
                                                                                                    
                                                                                                    
                                                                                                    
                           
<?xpacket end="w"?></metadata>
<defs>
    <style>
      .cls-1 {
        fill: #9b00c8;
        fill-rule: evenodd;
      }
    </style>
  </defs>
  <path class="cls-1" d="M-20,1091c-0.473-17.72,17.67-41.09,44-73,28.652-34.727,45.592-53.237,70.148-55,30.348-2.179,43.332,32.088,76.852,37,29.763,4.36,45.853-16.743,75-21,26.907-3.93,61.188,12.026,86-4,17.875-11.545,27.043-41.447,36-54,20.676-28.976,39.373-41.043,50-40,29.212,2.868,36.049,59.51,76,73,20.628,6.965,41.107,1.6,52-3,26.2-11.07,30.869-36.752,55-42,23.365-5.081,46.154,17.107,74,22,21.765,3.824,37.636.674,47-4,7.284-3.636,20.725-15.436,31-34,8.962-16.193,11.438-30.3,19-46.461,7.385-15.784,17.535-29.078,23-33.539,7.927-6.472,27.48-15.789,54-17,27.247-1.244,49.739,4.152,67,15,17.848,11.217,28.185,35.189,50,40,21.583,4.76,44.34-15.063,60-19,32.97-8.286,65.72,12.339,89-5,14.18-10.567,21.54-31.9,21-70-0.24-17.109-16.04-52.456-5-71,4.47-7.507,25.33-18.459,58-22,49.41-5.355,78.19,3.714,88,17,10.76,14.571,2.28,34.938,14,44,14.5,11.2,48.43-1.793,68-23,26.2-28.384,26-68.659,23-89-2.01-13.639-5.83-25.415-3-42,3.12-18.263,10.14-31.167,20-39,19.1-15.176,45.78-10.266,59-8,52.5,9,91.13,7.231,104-3,21.12-16.8,12.78-48.185,28-75,10.92-19.236,35.94-31.77,39.84-57,2.14-13.792-7.05-39.373-23.84-70-8.23-15.014-15.69-27.808-14-45,2.2-22.381,19.01-42.37,37.84-52,17.45-8.919,35.48-6.345,63.16-6,22.9,0.285,41.76-1.756,52-7,20.51-10.5,36.05-32.2,46-63,2.01-6.228,8.67-33.508,16-51,3.23-7.718,8.1-17.94,19-25,15.13-9.8,30.29-5.518,50-4,14.97,1.153,48.46-8.476,64,3,23.8,17.579,19.93,59.67,19.16,70.508C1951.65,245,2189.8,803.222,1970,1158c-386.56,623.95-1729.716,115.84-1900,27C6.284,1151.76-19.208,1120.66-20,1091Z"/>
  <path class="cls-1" d="M1335,438c9.9,8.5,21.92,13.7,41,18,29.08,6.555,58.09,6.393,71,4,15.74-2.917,28.74-8.092,37-13,8.16-4.847,18.46-15.035,29-26,10.2-10.611,16.67-17.976,20-28,3.62-10.888,3.8-23.676,0-37a69.825,69.825,0,0,0-14-26c-11.51-13.533-33.2-21.785-38-25-6.77-4.534-18.58-17.248-33-23-8.86-3.534-18.91-5.308-32-6-16.66-.88-39.08,1.7-47,2-18.56.7-31.54,0.225-41,10-2.87,2.967-6.9,10.327-9,20-3.5,16.158,2.03,25.7-3,39-5.42,14.335-21.07,18.709-22,32-0.74,10.6,9.69,17.2,21,32C1319.37,416.714,1325.21,429.594,1335,438Z"/>
  <path class="cls-1" d="M1222,257c-3.3-18.85-22.75-37.536-44-35-10.53,1.257-19.45,7.452-25,15-7.36,10.013-8.11,21.738-6.53,30.352,1.73,9.454,6,15.722,8.53,17.648,9.66,7.341,27.1-1.086,39,0,9.38,0.856,14.42,3.484,20,0C1222.57,279.652,1223.51,265.634,1222,257Z"/>
  <path class="cls-1" d="M1095,218c-10.86-6.045-21.5-4.627-26,1a12.707,12.707,0,0,0-2,12c1.57,4.333,5.71,6.829,9,8,3.01,1.071,9.55,2.366,15-2C1096.14,232.88,1098.06,225.129,1095,218Z"/>
</svg>
